PathFileType  4	(X/Y/Z) C:\Users\antoi\Documents\MyRepositories\mobilecap\ResultsAnalysis
DataRate	CameraRate	NumFrames	NumMarkers	Units	OrigDataRate	OrigDataStartFrame	OrigNumFrames
100.0	100.0	4	51	mm	100.0	61	242
Frame#	Time	r_knee			r_shank_antsup			r_ankle			r_calc			r_5meta			r_toe			L_knee			L_shank_antsup			L_ankle			L_calc			L_5meta			L_toe			r_sh2			r_sh3			r_sh4			L_sh2			L_sh3			r_thigh1			r_thigh2			r_thigh3			r_thigh4			r_thigh5			L_thigh1			L_thigh2			L_thigh3			L_thigh4			r.ASIS			r.PSIS			L.ASIS			L.PSIS			C7			R_Shoulder			L_Shoulder			R_Sternum			L_Sternum			R_humerus			R_elbow_med			R_elbow_lat			R_forearm			R_wrist_radius			R_wrist_ulna			L_humerus			L_elbow_med			L_elbow_lat			L_forearm			L_wrist_radius			L_wrist_ulna			R_HJC			L_HJC			R_HJC_reg			L_HJC_reg			
		X1	Y1	Z1	X2	Y2	Z2	X3	Y3	Z3	X4	Y4	Z4	X5	Y5	Z5	X6	Y6	Z6	X7	Y7	Z7	X8	Y8	Z8	X9	Y9	Z9	X10	Y10	Z10	X11	Y11	Z11	X12	Y12	Z12	X13	Y13	Z13	X14	Y14	Z14	X15	Y15	Z15	X16	Y16	Z16	X17	Y17	Z17	X18	Y18	Z18	X19	Y19	Z19	X20	Y20	Z20	X21	Y21	Z21	X22	Y22	Z22	X23	Y23	Z23	X24	Y24	Z24	X25	Y25	Z25	X26	Y26	Z26	X27	Y27	Z27	X28	Y28	Z28	X29	Y29	Z29	X30	Y30	Z30	X31	Y31	Z31	X32	Y32	Z32	X33	Y33	Z33	X34	Y34	Z34	X35	Y35	Z35	X36	Y36	Z36	X37	Y37	Z37	X38	Y38	Z38	X39	Y39	Z39	X40	Y40	Z40	X41	Y41	Z41	X42	Y42	Z42	X43	Y43	Z43	X44	Y44	Z44	X45	Y45	Z45	X46	Y46	Z46	X47	Y47	Z47	X48	Y48	Z48	X49	Y49	Z49	X50	Y50	Z50	X51	Y51	Z51	

61	0.60000000	-1058.05100	738.73345	-448.07724	-1055.56224	633.42584	-460.38736	-1284.53086	401.96610	-461.07723	-1353.91957	365.67189	-506.93822	-1172.20767	350.63987	-419.23429	-1139.34134	377.43997	-474.38363	-1038.71403	752.53387	-732.29346	-1026.38547	653.07177	-714.02985	-1263.60257	414.04745	-710.15562	-1344.31540	379.45491	-664.89206	-1168.60691	349.53761	-745.60919	-1120.36540	370.35394	-689.27056	-1122.69575	541.69951	-461.43580	-1106.53117	667.89752	-415.63239	-1178.25231	577.84731	-410.83250	-1085.70662	708.08649	-757.53609	-1157.95694	609.72504	-763.20105	-1108.18575	1010.51086	-402.80657	-1061.48396	913.79840	-428.38740	-1098.36050	862.75629	-399.58832	-1208.61488	958.26812	-390.63508	-1153.54515	858.20002	-414.41130	-1080.45898	1001.14378	-746.87684	-1009.27349	881.88082	-723.53355	-1169.32555	945.15249	-778.72045	-1103.08517	832.66505	-750.81931	-1102.85331	1148.34780	-451.38673	-1282.72306	1254.35972	-527.97157	-1106.67101	1150.93034	-704.89716	-1281.04343	1253.64185	-624.44316	-1005.90374	1637.86250	-556.69387	-952.03129	1559.00752	-392.88864	-930.58329	1560.44817	-699.71473	-938.28704	1508.96753	-530.59874	-935.77207	1511.13335	-574.95018	-948.07832	1424.42392	-346.45199	-1066.04873	1239.27466	-366.69353	-1042.85737	1248.89550	-305.30324	-989.34780	1181.95524	-290.42651	-931.00995	1026.57410	-329.35550	-967.06336	1018.29947	-298.02617	-931.53280	1422.81119	-753.99422	-1050.94960	1246.06270	-737.33702	-1014.19723	1252.60817	-806.26948	-969.02154	1189.71688	-808.97686	-936.36800	1016.99114	-780.54200	-973.36073	1018.12441	-815.96239	-1211.92524	1097.51949	-475.94222	-1212.57991	1099.45935	-665.49374	-1201.48949	1105.38834	-488.50831	-1198.57636	1104.14276	-655.82301	
62	0.61000000	-1053.42065	735.26752	-448.68605	-1051.57845	630.06050	-460.89824	-1284.02395	402.03037	-461.32041	-1353.84808	365.75928	-507.00204	-1172.13382	350.47668	-419.17872	-1139.25275	377.21809	-474.34044	-1032.35826	749.65501	-732.79205	-1020.57530	650.11430	-714.33570	-1262.31814	415.39516	-710.06104	-1343.41163	382.01555	-664.64017	-1168.33884	349.44032	-745.65034	-1119.56711	369.92139	-689.51619	-1120.30659	539.81149	-461.64182	-1101.95052	665.44866	-416.18112	-1174.96632	575.92675	-411.59177	-1079.20322	706.13263	-757.76321	-1153.14541	609.09633	-763.49896	-1106.56763	1006.01202	-403.55160	-1059.74283	909.61171	-427.56038	-1095.02419	858.71777	-400.16624	-1206.11420	952.96360	-391.02496	-1149.90532	853.58753	-414.92773	-1077.82654	997.59474	-747.74535	-1005.24724	879.32379	-724.98034	-1166.32766	939.87203	-778.65680	-1098.04078	828.54423	-750.67114	-1101.61434	1143.00422	-451.52157	-1281.08037	1248.98156	-528.02326	-1104.97448	1145.14550	-704.88134	-1279.26196	1248.21967	-624.59218	-1002.74137	1631.50269	-556.77247	-948.51150	1552.66005	-393.08976	-927.51560	1553.95780	-699.20054	-935.60785	1502.28888	-530.42905	-933.09235	1504.50013	-574.82052	-939.76606	1419.26203	-346.77967	-1047.96959	1228.26807	-367.36430	-1024.57021	1238.75937	-306.31435	-966.62496	1175.15889	-292.85041	-898.76201	1024.26709	-334.91390	-933.81526	1012.91769	-303.69315	-923.26905	1417.44933	-753.33801	-1033.15091	1234.47509	-736.01799	-995.93170	1242.84335	-804.44595	-945.60685	1183.20496	-805.25797	-900.63548	1014.47880	-771.62083	-936.37221	1011.06851	-807.06319	-1210.54638	1092.16437	-475.93039	-1211.05396	1093.91209	-665.48410	-1200.12820	1099.95793	-488.73812	-1196.98133	1098.63889	-655.94181	
63	0.62000000	-1048.65721	731.81714	-449.10337	-1047.58687	626.69527	-461.41211	-1283.48595	402.09504	-461.56515	-1353.74127	365.89496	-507.12841	-1172.13553	350.24148	-419.15766	-1139.10747	376.93807	-474.41816	-1025.64107	747.07966	-733.71351	-1014.90229	647.24483	-714.91717	-1260.86198	417.08647	-710.81918	-1342.47179	384.63905	-664.56762	-1168.02583	349.37092	-745.67072	-1118.85040	369.46735	-689.53293	-1117.38270	537.55013	-461.93727	-1097.25624	662.79922	-416.54655	-1171.62843	574.18298	-412.23952	-1072.51066	704.17300	-757.98250	-1148.08211	608.64495	-764.16404	-1104.39236	1001.67050	-404.17090	-1057.59703	905.90239	-426.76350	-1091.39771	854.83072	-400.50592	-1203.29316	947.86689	-391.27093	-1146.05525	849.11692	-415.35945	-1074.97808	994.04893	-748.53364	-1000.62837	877.04121	-726.18139	-1162.87069	934.75008	-778.64365	-1092.67789	824.59303	-750.70517	-1099.88500	1137.88872	-451.67302	-1279.32965	1243.54412	-528.28134	-1102.99468	1139.37801	-704.65773	-1277.28946	1242.69477	-624.82436	-999.77786	1625.40451	-556.93667	-944.96301	1546.78292	-393.46821	-924.49423	1547.93370	-698.76489	-932.92483	1495.95980	-530.32213	-930.42655	1498.18123	-574.77900	-931.12066	1414.85534	-347.36698	-1028.01237	1218.35633	-368.86492	-1005.21734	1229.87059	-307.41432	-942.92025	1169.87746	-295.50586	-865.56388	1024.36807	-340.86597	-899.26634	1010.71434	-308.56080	-914.89006	1412.63332	-752.66862	-1014.62912	1224.01144	-734.95750	-976.99937	1234.21309	-802.60526	-921.66713	1178.52826	-801.46926	-864.01045	1015.14202	-762.17339	-898.17153	1007.34830	-797.61661	-1208.74779	1086.91689	-475.82669	-1209.11229	1088.25926	-665.38379	-1198.35047	1094.55894	-489.00919	-1194.82252	1093.08965	-655.95076	
64	0.63000000	-1043.53713	728.57794	-449.29067	-1043.61855	623.25770	-461.81242	-1283.03031	402.26022	-461.77516	-1353.60790	366.05710	-507.26685	-1172.15994	350.09686	-419.14326	-1138.89916	376.59838	-474.49160	-1018.93847	744.31022	-734.16808	-1009.31891	644.35817	-715.49355	-1259.35645	418.86973	-711.92698	-1341.46498	387.26484	-664.59842	-1167.72447	349.33214	-745.68427	-1118.21621	368.99682	-689.54440	-1114.27997	535.05621	-462.03175	-1092.84660	659.85233	-417.05333	-1168.46671	572.63886	-412.66677	-1065.75694	702.17739	-758.53879	-1142.93339	608.01156	-764.78966	-1101.69474	997.84372	-403.97290	-1053.59859	902.91672	-427.30233	-1087.30140	851.11770	-400.64557	-1200.15891	942.99892	-391.42207	-1142.02365	844.69523	-415.75951	-1071.79163	990.63174	-749.20752	-995.52497	874.88715	-727.14580	-1159.01403	929.99560	-778.65646	-1087.11581	820.90321	-750.95919	-1097.88115	1132.87272	-451.61896	-1277.44695	1238.17334	-528.89389	-1100.69517	1133.84521	-704.86479	-1275.07787	1237.13444	-625.13829	-996.98641	1619.55368	-557.11257	-941.30443	1541.40791	-393.96731	-921.43839	1542.37585	-698.37452	-930.25386	1490.01604	-530.29442	-927.74564	1492.22270	-574.79582	-922.20716	1411.23305	-348.38019	-1006.50577	1209.86388	-370.90866	-985.13745	1222.28771	-308.76446	-918.43405	1166.41629	-298.37417	-831.69781	1027.30495	-346.89528	-863.85453	1011.81090	-312.64897	-906.30446	1408.52723	-751.82722	-995.42773	1214.65314	-734.34178	-957.43111	1226.96505	-801.52568	-897.67509	1175.81275	-797.62929	-826.95882	1019.06480	-752.14951	-859.19830	1007.66186	-788.31266	-1206.66671	1081.72117	-475.92140	-1206.79104	1082.70016	-665.48140	-1196.46997	1089.22954	-489.24905	-1192.35378	1087.42326	-656.34194	
